#!OML:ASF F:\VICON\USERDATA\INSTALL\rory3\rory3.ASF
:FULLY-SPECIFIED
:DEGREES
36
root 0.3355356163095101 17.841263204771195 -1.3262168550335947 -1.2378777092525755 2.185963841452361 1.9187649677146257
lfemur 14.97496629529618 -6.964993868786287 -25.5930678659737
ltibia 15.865782328210503
lfoot -6.405090812246605 -1.2950893007058866
ltoes -3.4762308104603887
rfemur -27.933558161933032 4.6985749933703245 18.959750529075407
rtibia 23.058642303888114
rfoot -5.252471773425909 -9.091793317824271
rtoes -4.578520023153896
lowerback 9.18191183992138 -1.7826726524638188 -3.520176225849511
upperback 0.34791736768796494 -1.950021568698805 1.5357813415269785
thorax -4.565561264683934 -1.1466414094656894 4.098984871683706
lowerneck -16.818649564487274 -3.109700744350109 -1.9670651341419023
upperneck 21.94845040297535 -3.867311675457226 0.7309649195497374
head 9.71353758618677 -1.8733926910271417 0.011963472776502837
lclavicle -1.957608576985718e-15 8.914260074698725e-16
lhumerus -23.534724416490086 -1.9350011521301937 83.09735378676318
lradius 30.614259695678193
lwrist 6.442517310487613
lhand -27.085476729605013 25.70636748220321
lfingers 7.12502
lthumb -0.43526832843087515 55.8753956119644
rclavicle -1.9512582388815522e-15 9.08603696752025e-16
rhumerus -33.04838963833097 -25.602579994275597 -74.98334708848631
rradius 19.531734167392226
rwrist 13.564025452107426
rhand -17.1046678237193 22.83890653701507
rfingers 7.12502
rthumb 8.887501943078128 -6.9901380973044756
37
root 0.23237811498522165 17.90330538186929 -0.5693473559973636 -1.8409566971687776 1.5752751147593926 -0.00985436856306876
lfemur 12.06571098066831 -6.771781338302318 -23.584885919968247
ltibia 24.445456927765914
lfoot -5.664088481585445 -2.6219438889623654
ltoes -2.9560927600182607
rfemur -26.83769284408252 4.382092723270376 21.145817141971104
rtibia 26.33733802726001
rfoot -4.555523100526936 -5.943667084509991
rtoes -1.5414298966574989
lowerback 9.285247175495204 -1.7474164347713996 -2.002498514832949
upperback 0.336000427809111 -1.8881314428450664 1.9825030655259055
thorax -4.610560463427515 -1.1276274509008681 3.9472760798315005
lowerneck -16.88293345700822 -3.052430216413511 -1.9988212203313247
upperneck 21.91658636564886 -3.7863428149554683 0.7129145547848137
head 9.68618059530316 -1.8336016150007326 0.008976530328939122
lclavicle -1.957663322957816e-15 8.914255641519228e-16
lhumerus -24.904811957519232 -1.4397400266367015 83.26408746819818
lradius 31.267924958714502
lwrist 6.48339750426512
lhand -27.020930595139767 25.819664675501453
lfingers 7.12502
lthumb -0.32721003148038563 56.08370604207041
rclavicle -1.9512515743937758e-15 9.086083419165191e-16
rhumerus -33.02640678635461 -26.162194587922436 -74.57120327380865
rradius 19.367451595772152
rwrist 12.73055146336366
rhand -17.076658053985724 22.833992851803064
rfingers 7.12502
rthumb 8.875826763287334 -6.91358397348599
38
root 0.12840300824910605 17.96754412177588 0.5584602489801203 -2.3523383061489485 1.1660116089325077 -1.5159166915011206
lfemur 7.474885720466872 -5.600195787459687 -20.70648907575194
ltibia 33.21632042795065
lfoot -2.9001298243339466 -5.514186917953375
ltoes -2.5787824651721607
rfemur -24.88464474683075 4.237574283115908 23.422082146285025
rtibia 28.988370634260107
rfoot -5.406923682462237 -4.677518449655621
rtoes 2.7679887549425444
lowerback 9.327936475693656 -1.6766548606800242 -0.6973008515575743
upperback 0.31403191720173945 -1.8006177442054687 2.439088350669649
thorax -4.693072591625783 -1.0761443066596146 3.7032377331701847
lowerneck -16.910007943502283 -2.989716649352226 -1.998608834426541
upperneck 21.75066347265288 -3.701828786888411 0.6631368715353327
head 9.64005610127578 -1.800761677747086 0.018221395643540778
lclavicle -1.957635543406101e-15 8.914149548735426e-16
lhumerus -26.16167228225747 -1.8707620410743269 83.51642259208047
lradius 31.629759534758314
lwrist 6.748881892533287
lhand -27.0444452949586 25.671090401932197
lfingers 7.12502
lthumb -0.3536427538602467 55.96459549876485
rclavicle -1.9512436788095804e-15 9.086118450762502e-16
rhumerus -32.62299212615536 -25.452386099318524 -75.07824898583685
rradius 19.709633640231647
rwrist 11.225767919430634
rhand -17.089570762118505 22.73439052715554
rfingers 7.12502
rthumb 8.8127483040188 -7.050286026237364
39
root 0.03693942365693764 18.041763058310917 1.5928592481179962 -2.749032899651495 0.8881624977709115 -2.8285083788216685
lfemur 1.9371917941489354 -4.302723262089701 -17.88480944002888
ltibia 43.45563587722309
lfoot 0.12059244512998646 -8.624384084887717
ltoes -2.5595222837485907
rfemur -22.097050713750303 4.635495226184689 25.821687739264537
rtibia 30.397747500667833
rfoot -6.494813795968041 -4.590302971110111
rtoes 7.68935031369978
lowerback 9.41631476047483 -1.483735306410201 0.6281440315917944
upperback 0.3305407443990296 -1.5710948422201043 2.8100931191906486
thorax -4.765678768943263 -0.9448989013629974 3.3677172945875715
lowerneck -16.906015949813792 -2.9473379868960947 -1.995843521963669
upperneck 21.565561888229173 -3.64146915455426 0.638390764092862
head 9.635457215579688 -1.7811950944736479 0.025315546526527857
lclavicle -1.957612190442013e-15 8.91268578932754e-16
lhumerus -27.09083746406448 -2.2744496397544918 83.7413539464388
lradius 31.66643340362118
lwrist 6.85673130211946
lhand -27.030654307476954 25.586606727658907
lfingers 7.12502
lthumb -0.3441639878916381 55.88545944311804
rclavicle -1.951238996847222e-15 9.086169316073797e-16
rhumerus -31.641539731714676 -23.610804547608073 -76.38003374459811
rradius 20.190936103328397
rwrist 10.048372976629206
rhand -17.136560458209054 22.504501302834026
rfingers 7.12502
rthumb 8.75361250292361 -7.29875888590419
40
root -0.027403536704589393 18.121769845780456 2.7898245651217533 -3.0671896882189507 0.5479642431313065 -3.776243330753058
lfemur -3.588588702919881 -2.7627456976045215 -15.844009482695347
ltibia 53.45900374983084
lfoot 4.087105080179067 -9.273635532520434
ltoes -2.4834692593106285
rfemur -18.78910748309387 5.134244963413502 27.868417178007473
rtibia 30.140314819393176
rfoot -7.445007187858709 -4.926695134222482
rtoes 10.035613559589923
lowerback 9.507584195402549 -1.1141705620989772 1.787310285078879
upperback 0.3955005455723107 -1.144717478935434 3.0329173970534082
thorax -4.862625836857537 -0.7734144104297107 2.9572198146597426
lowerneck -16.862717880665127 -2.8950329654898166 -1.9626706037342487
upperneck 21.543982464055482 -3.6179518259686554 0.6609552350995211
head 9.616793568017972 -1.7817644352202928 0.02584000123230558
lclavicle -1.9576246494191167e-15 8.912968614234696e-16
lhumerus -27.972877108796002 -1.8465734049269555 83.72342868028811
lradius 31.338976185615646
lwrist 6.537282244976887
lhand -27.048918815205276 25.399068191343606
lfingers 7.12502
lthumb -0.33823828185461013 55.74382449664729
rclavicle -1.9512323967526954e-15 9.086221311959196e-16
rhumerus -30.35136910620151 -21.573336184519878 -77.72758881328832
rradius 20.657479092912723
rwrist 9.122733863131156
rhand -17.228307112603083 22.375912062824813
rfingers 7.12502
rthumb 8.69428513678494 -7.416387533518544
41
root -0.06718288990561427 18.176573462126786 3.81507051430727 -3.3156256041841967 0.16225504238406296 -4.267553125956597
lfemur -8.544733169057112 -1.1348021889307314 -14.720902723548178
ltibia 60.861591056739
lfoot 3.5061317319421184 -8.425499225843174
ltoes -2.23058750135863
rfemur -15.49395298112718 5.47662093828408 29.19294391770692
rtibia 29.562468448696976
rfoot -8.408552716792377 -5.34877950806589
rtoes 9.192474744540053
lowerback 9.514713216976347 -0.6374898027584509 2.7305276435168633
upperback 0.4840165422500518 -0.6364244775769434 3.0261320236979286
thorax -4.92345939540753 -0.5440232406201146 2.4611949359129905
lowerneck -16.829812167981373 -2.8585521739799535 -1.9736420635243248
upperneck 21.5390230190598 -3.6208668677769644 0.641896604268591
head 9.5876590378976 -1.7939996535481937 0.03775779727766228
lclavicle -1.957621458249444e-15 8.914000095296427e-16
lhumerus -28.96127076534427 -0.8675898039242271 83.52874155635305
lradius 30.75465380907856
lwrist 5.772263588184554
lhand -27.037913494511717 25.26113418411554
lfingers 7.12502
lthumb -0.3482184417013872 55.61049959735776
rclavicle -1.951232247546068e-15 9.086226881616658e-16
rhumerus -29.126372839154875 -19.499881290850436 -78.91637132624369
rradius 21.252446941304072
rwrist 7.9975192843616725
rhand -17.356301822043825 22.41125054522429
rfingers 7.12502
rthumb 8.611794409121707 -7.370551774445626
42
root -0.0864103025671405 18.19662651991678 4.482527629677136 -3.461418790117662 -0.41201904519234245 -4.691148445269338
lfemur -13.099682631428738 0.3177722504935523 -14.223328055490413
ltibia 65.43085036371774
lfoot 1.9027860241909265 -7.186245173245329
ltoes -1.8206261138901698
rfemur -12.768330984492678 5.760069431034799 29.986399495730744
rtibia 29.13717261813179
rfoot -9.370440532884864 -5.611666778341449
rtoes 7.8617604864695885
lowerback 9.470289740057593 -0.111522709826405 3.4513517476981734
upperback 0.543220596082494 -0.059904054515999894 2.9009226132132255
thorax -4.995370353404724 -0.2813068027178216 1.8848624221456909
lowerneck -16.795600305670355 -2.847017843706016 -2.024616877412747
upperneck 21.48259894925745 -3.638784612684702 0.6657595183183018
head 9.551984681719146 -1.8200931961979878 0.054933928801157494
lclavicle -1.9576222517443356e-15 8.91400240061156e-16
lhumerus -29.979993037635754 0.046047398367331516 83.30671952614495
lradius 30.024601320722056
lwrist 5.046240037252785
lhand -26.989915513380154 25.215167836561037
lfingers 7.12502
lthumb -0.35161989100171526 55.51198161050427
rclavicle -1.951230923747862e-15 9.086239732923733e-16
rhumerus -28.080401163277312 -17.24218322578651 -79.96878415713185
rradius 22.133808211270814
rwrist 6.617649802026618
rhand -17.497681919037127 22.3972263722071
rfingers 7.12502
rthumb 8.56618226624365 -7.256530641041414
